<svg width="126" height="20" viewBox="0 0 126 20" fill="none" xmlns="http://www.w3.org/2000/svg">
<g clip-path="url(#clip0_9_107)">
<path d="M5.71031 12.6741V10.2507H11.1588V20H4.14206C1.37883 20 0 18.8774 0 16.6295V3.42618C0 1.14206 1.38162 0 4.14206 0H6.60446C9.64067 0 11.1588 1.16156 11.1588 3.48189V5.6546H7.5766V3.87187C7.5766 2.90529 7.06685 2.4234 6.04735 2.4234H5.15042C4.10585 2.4234 3.58217 2.90529 3.58217 3.87187V16.1281C3.58217 17.0947 4.10585 17.5766 5.15042 17.5766H7.5766V12.6741H5.71031Z" fill="#E1E1E6"/>
<path d="M17.7299 20H14.1477V3.42618C14.1477 1.14206 15.5795 0 18.4402 0H21.1282C23.9889 0 25.4207 1.14206 25.4207 3.42618V20H21.8385V12.6741H17.7327V20H17.7299ZM21.8357 10.2507V3.59331C21.8357 2.81337 21.3121 2.4234 20.2675 2.4234H19.2981C18.2536 2.4234 17.7299 2.81337 17.7299 3.59331V10.2507H21.8357Z" fill="#E1E1E6"/>
<path d="M37.1754 9.72145C39.142 10.1309 40.1253 10.8914 40.1253 12.0056V17.0195C40.1253 19.0056 38.7687 20 36.0556 20H28.8523V0H34.9749C38.1587 0 39.752 1.20613 39.752 3.62117V7.46518C39.752 8.6156 38.8941 9.32312 37.1754 9.58217V9.72145ZM32.4345 8.44011H34.1141C35.4818 8.44011 36.1671 7.95822 36.1671 6.99164V3.87187C36.1671 2.90529 35.6322 2.4234 34.5626 2.4234H32.4345V8.44011ZM32.4345 17.5766H35.1225C36.0668 17.5766 36.5403 17.2897 36.5403 16.7131V12.2841C36.5403 11.337 35.83 10.8635 34.4122 10.8635H32.4345V17.5766Z" fill="#E1E1E6"/>
<path d="M51.6964 9.72145C53.663 10.1309 54.6463 10.8914 54.6463 12.0056V17.0195C54.6463 19.0056 53.2897 20 50.5766 20H43.3733V0H49.4959C52.6797 0 54.273 1.20613 54.273 3.62117V7.46518C54.273 8.6156 53.4151 9.32312 51.6964 9.58217V9.72145ZM46.9555 8.44011H48.6351C50.0028 8.44011 50.6881 7.95822 50.6881 6.99164V3.87187C50.6881 2.90529 50.1532 2.4234 49.0836 2.4234H46.9555V8.44011ZM46.9555 17.5766H49.6435C50.5878 17.5766 51.0613 17.2897 51.0613 16.7131V12.2841C51.0613 11.337 50.351 10.8635 48.9332 10.8635H46.9555V17.5766Z" fill="#E1E1E6"/>
<path d="M57.8914 20V0H66.7744V2.4234H61.4735V8.49582H66.1755V10.9192H61.4735V17.5766H66.7744V20H57.8914Z" fill="#E1E1E6"/>
<path d="M72.4485 17.5766H78.4958V20H68.5682L68.3064 19.0529L73.9415 2.45125H68.9025V0H77.0028L77.7493 1.14206L72.4485 17.5766Z" fill="#E1E1E6"/>
<path d="M80.8079 20V0H89.6909V2.4234H84.39V8.49582H89.092V10.9192H84.39V17.5766H89.6909V20H80.8079Z" fill="#E1E1E6"/>
<path d="M92.5293 20V0H96.1115V20H92.5293Z" fill="#E1E1E6"/>
<path d="M99.7327 0H106.749C109.488 0 110.855 1.14206 110.855 3.42618V8.35655C110.855 10.1031 110.145 11.2061 108.727 11.6713L111.228 20H107.833L105.482 11.922H103.318V20H99.7354V0H99.7327ZM103.315 9.63788H105.666C106.735 9.63788 107.27 9.15599 107.27 8.18941V3.87187C107.27 2.90529 106.735 2.4234 105.666 2.4234H103.315V9.63788Z" fill="#E1E1E6"/>
<path d="M117.499 20H113.917V3.42618C113.917 1.14206 115.348 0 118.209 0H120.897C123.758 0 125.189 1.14206 125.189 3.42618V20H121.607V12.6741H117.501V20H117.499ZM121.605 10.2507V3.59331C121.605 2.81337 121.081 2.4234 120.036 2.4234H119.067C118.022 2.4234 117.499 2.81337 117.499 3.59331V10.2507H121.605Z" fill="#E1E1E6"/>
</g>
<defs>
<clipPath id="clip0_9_107">
<rect width="125.189" height="20" fill="white"/>
</clipPath>
</defs>
</svg>
